<svg id="footer_logo" xmlns="http://www.w3.org/2000/svg" width="240" height="60.9" viewBox="0 0 240 60.9"><defs><style>.cls-1{fill:#fff;}.cls-2{fill:#8e1f61;}.cls-3{fill:#7fa53f;}.cls-4{fill:none;}</style></defs><path class="cls-1" d="M77.21,27.7V22.28c0-1-.16-1.8-1.35-1.8s-1.23,1.31-1.23,2.23v5H72V22.28c0-1-.16-1.8-1.33-1.8a1.2,1.2,0,0,0-1.21,1.27V27.7H66.75V18.07h2.19l.09.39a2.64,2.64,0,0,1,1.64-.61,3.77,3.77,0,0,1,2.77,1,3.45,3.45,0,0,1,2.48-1c2.75,0,4,1.85,4,4.43V27.7Z"/><path class="cls-1" d="M85.91,27.9c-3.1,0-4.37-2.13-4.37-5s1.27-5,4.37-5,4.37,2.15,4.37,5S89,27.9,85.91,27.9Zm0-7.43c-1.46,0-1.68,1.22-1.68,2.43s.22,2.42,1.68,2.42,1.68-1.21,1.68-2.42S87.35,20.47,85.91,20.47Z"/><path class="cls-1" d="M97.83,27.7l-.1-.41a3.09,3.09,0,0,1-1.75.59c-2.72,0-4-1.62-4-4.21v-5.6h2.65v5.42c0,1.05.22,1.81,1.45,1.81A1.25,1.25,0,0,0,97.34,24V18.07H100V27.7Z"/><path class="cls-1" d="M105.89,27.9c-2,0-3.53-.64-4-2.65l2.3-.63c.23.59.66.92,1.66.92.43,0,1.25-.08,1.25-.67,0-1.4-5.13-.66-5.13-4,0-2.05,1.69-3,3.55-3a3.76,3.76,0,0,1,3.72,1.93l-2,1.13a1.83,1.83,0,0,0-1.44-.76c-.41,0-1.13.1-1.13.67,0,1.23,5.09.44,5.09,3.92C109.73,26.85,107.74,27.9,105.89,27.9Z"/><path class="cls-1" d="M119.21,23.53h-5.58a1.82,1.82,0,0,0,1.88,1.85,2.62,2.62,0,0,0,1.81-1l1.8,1.77a4.78,4.78,0,0,1-3.63,1.76c-2.91,0-4.59-2.21-4.59-5s1.56-5,4.49-5a4,4,0,0,1,3.47,2.44,7.85,7.85,0,0,1,.35,3Zm-3.94-3.16a1.58,1.58,0,0,0-1.62,1.5h3.1C116.64,21,116.23,20.37,115.27,20.37Z"/><path class="cls-1" d="M125,27.9a2.74,2.74,0,0,1-1.7-.57l-.1.37H121V14.09h2.65v4.17a2.9,2.9,0,0,1,1.54-.37c2.85,0,3.87,2.36,3.87,5S128,27.9,125,27.9Zm0-7.45a1.18,1.18,0,0,0-1.31,1.24v2.38A1.18,1.18,0,0,0,125,25.3c1.38,0,1.44-1.38,1.44-2.42S126.37,20.45,125,20.45Z"/><path class="cls-1" d="M132.27,16.54a1.5,1.5,0,1,1,0-3,1.5,1.5,0,0,1,0,3ZM131,27.7V18.07h2.59V27.7Z"/><path class="cls-1" d="M141.2,20.6a3.11,3.11,0,0,0-1.13-.27,1.25,1.25,0,0,0-1.39,1.34v6h-2.63V18.07h2.15l.09.41a3,3,0,0,1,1.78-.67,3.59,3.59,0,0,1,2.11.74Z"/><path class="cls-1" d="M148.87,28l-.2-.57a3.81,3.81,0,0,1-1.91.47c-3,0-4.1-2.34-4.1-5s1.1-5,4.1-5a2.42,2.42,0,0,1,1.33.39V14.09h2.65V25.87c0,.06.41,1.31.45,1.44Zm-2.09-7.55c-1.42,0-1.46,1.36-1.46,2.43s0,2.42,1.46,2.42a1.21,1.21,0,0,0,1.31-1.23v-2.4A1.21,1.21,0,0,0,146.78,20.45Z"/><path class="cls-1" d="M162.74,27.86c-2.87,0-4.23-2.19-4.23-4.84s1.36-4.86,4.23-4.86a3.89,3.89,0,0,1,3.26,1.6l-.92.86a2.86,2.86,0,0,0-2.34-1.23c-2.2,0-2.87,1.72-2.87,3.63s.67,3.63,2.87,3.63a2.86,2.86,0,0,0,2.34-1.23l.92.86A4,4,0,0,1,162.74,27.86Z"/><path class="cls-1" d="M171.64,27.84c-3,0-4-2.17-4-4.84s1-4.9,4-4.9,4,2.21,4,4.88S174.68,27.84,171.64,27.84Zm0-8.45c-2.29,0-2.68,1.68-2.68,3.61s.39,3.57,2.68,3.57,2.69-1.66,2.69-3.57S173.92,19.39,171.62,19.39Z"/><path class="cls-1" d="M184.1,27.7V22.22c0-1.83-.54-2.83-2.51-2.83a2.36,2.36,0,0,0-2.36,2.48V27.7h-1.31V18.26h1.31v.9a3.14,3.14,0,0,1,2.36-1.06c2.63,0,3.8,1.47,3.8,4V27.7Z"/><path class="cls-1" d="M191.38,27.86c-1.93,0-3.34-.7-3.86-2.67l1.29-.41a2.28,2.28,0,0,0,2.57,1.83c1,0,2.22-.45,2.22-1.6,0-2.44-5.77-.94-5.77-4.35,0-1.78,1.72-2.56,3.28-2.56a3.52,3.52,0,0,1,3.53,2.07l-1.17.57a2.25,2.25,0,0,0-2.36-1.37c-.8,0-2,.3-2,1.29,0,1.95,5.77.76,5.77,4.35C194.91,26.9,193.1,27.86,191.38,27.86Z"/><path class="cls-1" d="M203.28,27.7V27a3.59,3.59,0,0,1-2.36.86c-2.65,0-3.82-1.29-3.82-4.19V18.26h1.3v5.41c0,1.87.53,2.92,2.52,2.92a2.2,2.2,0,0,0,2.36-2.11V18.26h1.29V27.7Z"/><path class="cls-1" d="M207.52,25.48V14.09h1.32V25.4c0,.66.08,1,.84,1V27.7A2,2,0,0,1,207.52,25.48Z"/><path class="cls-1" d="M213.9,19.53V25.4c0,1,.31,1,1.22,1V27.7h-.52c-1.41,0-2-1-2-2.3V19.53h-1.29V18.24h1.29V15.49h1.27v2.75h1.46v1.29Z"/><path class="cls-1" d="M218.68,15.69a.9.9,0,0,1,0-1.8.9.9,0,0,1,0,1.8Zm-.67,12V18.26h1.33V27.7Z"/><path class="cls-1" d="M228.59,27.7V22.22c0-1.83-.55-2.83-2.52-2.83a2.36,2.36,0,0,0-2.36,2.48V27.7H222.4V18.26h1.31v.9a3.14,3.14,0,0,1,2.36-1.06c2.63,0,3.8,1.47,3.8,4V27.7Z"/><path class="cls-1" d="M235.67,31.37c-1.68,0-3.77-.56-3.77-2.61a3.23,3.23,0,0,1,.18-1.06l1.15.41a1.56,1.56,0,0,0-.12.59c0,1.29,1.56,1.5,2.56,1.5,1.27,0,3.1-.84,3.1-2.3a1.18,1.18,0,0,0-1.27-1c-1.07,0-2.05.5-3.12.5-.92,0-1.79-.39-1.79-1.44a2.36,2.36,0,0,1,1.07-1.74,3.09,3.09,0,0,1-1.41-2.75,3.12,3.12,0,0,1,3.46-3.32,3.75,3.75,0,0,1,2.4.77c.43-.14.52-.53.5-.94h1.27a2,2,0,0,1-1,1.93,4.3,4.3,0,0,1,.27,1.56c0,2.23-1.27,3.28-3.43,3.28a6,6,0,0,1-1-.12,1.64,1.64,0,0,0-.89,1.27c0,.29.29.43.54.43,1.1,0,2.09-.57,3.18-.57a2.28,2.28,0,0,1,2.5,2.15C240,30.1,237.66,31.37,235.67,31.37Zm0-12c-1.39,0-2.15.63-2.15,2.07a2,2,0,0,0,2.17,2.15,1.87,1.87,0,0,0,2.1-2.15C237.83,20,237.11,19.35,235.71,19.35Z"/><path class="cls-2" d="M25,12.13A2.86,2.86,0,1,0,22.15,15,2.86,2.86,0,0,0,25,12.13"/><rect class="cls-1" y="14.07" width="29.52" height="2.65"/><path class="cls-2" d="M27.87,17.84A2.86,2.86,0,1,0,25,20.7a2.86,2.86,0,0,0,2.86-2.86"/><path class="cls-2" d="M19.29,17.84a2.86,2.86,0,1,0-2.86,2.86,2.86,2.86,0,0,0,2.86-2.86"/><path class="cls-3" d="M9.06,3.08c0,5.08,6.55,11.67,11.68,11.67,0-5.13-6.59-11.67-11.68-11.67"/><path class="cls-1" d="M35.18,10.29A1.32,1.32,0,0,0,36,12a3.78,3.78,0,0,1,2.49,4.51c-.3,1.64-1.32,2.86-2,2.86a1.33,1.33,0,0,0,0,2.66c2.16,0,4.11-2.13,4.64-5.05a6.43,6.43,0,0,0-4.18-7.47,1.31,1.31,0,0,0-1.7.78"/><line class="cls-1" x1="55.89" y1="51.23" x2="51.48" y2="59.57"/><path class="cls-1" d="M54.72,50.61,50.31,59a1.32,1.32,0,0,0,2.34,1.24l4.42-8.34a1.33,1.33,0,0,0-2.35-1.24"/><line class="cls-1" x1="50.15" y1="50.33" x2="45.29" y2="59.57"/><path class="cls-1" d="M49,49.72,44.12,59a1.32,1.32,0,0,0,2.34,1.24L51.33,51A1.33,1.33,0,1,0,49,49.72"/><path class="cls-1" d="M32.36,58.24a1.33,1.33,0,0,0,0,2.66H65.27a1.33,1.33,0,0,0,0-2.66H32.36"/><path class="cls-1" d="M38.18,14l-.08.14c-.63.72-5.18.58-9.52-.31l-.53,2.6c4,.83,11,1.79,12.44-1.14l-.08.15A4.3,4.3,0,0,1,44,13.84a4.52,4.52,0,0,1,2.8.88,4.52,4.52,0,0,1-2.8.88v2.66a7,7,0,0,0,5.79-2.82l.46-.72L49.77,14a7.36,7.36,0,0,0-11.59,0"/><path class="cls-1" d="M45.18,15a1.44,1.44,0,1,0-1.44,1.43A1.44,1.44,0,0,0,45.18,15"/><path class="cls-4" d="M53.65,23.82l-4.8-8c-.31-.49-.59-1.33-.59-5.53,0-.38,0-.9,0-1.33L45.94,10.3a1.33,1.33,0,0,1-1.59-.22A1.37,1.37,0,0,1,44,9.14a1.28,1.28,0,0,1,.18-.65c.65-1.16,1.33-2.43,1.93-3.58L31.38,15.08c5,3.21,8.51,6.44,9.17,10.43a10.56,10.56,0,0,1,2.17-1.38A13.86,13.86,0,0,1,53.65,23.82Z"/><path class="cls-4" d="M38.51,35.92a14,14,0,0,0-.14,2A9.2,9.2,0,0,0,40,43.38c2.52,3.55,8,5.49,15.19,6.51C48,45.84,41.14,40.79,38.51,35.92Z"/><path class="cls-4" d="M91.38,50.64c21.53-.52,45.52-1,63.32,4.79-15.82-8.37-54.23-7.29-74.13-6.73l-8.72.18,1.2,2C78.87,50.93,85.08,50.79,91.38,50.64Z"/><path class="cls-4" d="M72.34,54.91l-.8-1.35-3.05-.05C69.94,54.1,71.25,54.57,72.34,54.91Z"/><path class="cls-1" d="M40,43.38a9.2,9.2,0,0,1-1.61-5.46,14,14,0,0,1,.14-2,8.5,8.5,0,0,1-1.12-3.73,8.19,8.19,0,0,1,3.16-6.68c-.66-4-4.14-7.22-9.17-10.43L46.07,4.91c-.6,1.15-1.28,2.42-1.93,3.58a1.28,1.28,0,0,0-.18.65,1.37,1.37,0,0,0,.39.94,1.33,1.33,0,0,0,1.59.22L48.28,9c0,.43,0,.95,0,1.33,0,4.2.28,5,.59,5.53l4.8,8a16.32,16.32,0,0,1,4.74,2.8l.11.1L51.1,14.45a22,22,0,0,1-.19-4.06c0-.86,0-1.9,0-3.14V6.67a1.29,1.29,0,0,0-.65-1.12,1.32,1.32,0,0,0-1.32,0l-.34.19C50,3.19,50.41,2,50.41,1.3a1.14,1.14,0,0,0-.5-.94,1.46,1.46,0,0,0-1.86,0L28.21,14.05a1.32,1.32,0,0,0-.57,1.13,1.37,1.37,0,0,0,.64,1.1C38,22.09,39,25.75,37.43,29.78c-2.42,6.39-2.3,11.34.38,15.13,3.81,5.37,12.4,7.54,23.69,8.3-2.06-1-4.2-2.11-6.33-3.32C47.94,48.87,42.5,46.93,40,43.38Z"/><path class="cls-1" d="M162.68,58.86C153.24,44,107.7,45.28,80.5,46.05l-10.21.21,1.56,2.62,8.72-.18c19.9-.56,58.31-1.64,74.13,6.73-17.8-5.83-41.79-5.31-63.32-4.79-6.3.15-12.51.29-18.33.27l1.58,2.66c5.32,0,11-.14,16.81-.28,24.39-.58,52-1.24,69.53,7.47a1.34,1.34,0,0,0,1.58-.3A1.33,1.33,0,0,0,162.68,58.86Z"/><path class="cls-1" d="M76.14,56.11l-1.51-2.54-1.58-2.66-1.2-2-1.56-2.62h0L58.5,26.72l-.11-.1a16.32,16.32,0,0,0-4.74-2.8,13.86,13.86,0,0,0-10.93.31,10.56,10.56,0,0,0-2.17,1.38,8.19,8.19,0,0,0-3.16,6.68,8.5,8.5,0,0,0,1.12,3.73c2.63,4.87,9.52,9.92,16.66,14,2.13,1.21,4.27,2.32,6.33,3.32,6.19,3,11.63,4.91,13.5,4.91a1.34,1.34,0,0,0,1.15-.67A1.36,1.36,0,0,0,76.14,56.11Zm-7.65-2.6c-1.94-.79-4.15-1.79-6.46-2.94-10-5-21.81-12.73-22-18.47v-.17c0-2.27,1.39-4.23,3.83-5.41a11.88,11.88,0,0,1,12.59,2l.07.05,7,11.61,4.92,8.3L70,50.88l1.59,2.68.8,1.35C71.25,54.57,69.94,54.1,68.49,53.51Z"/></svg>