<?xml version="1.0" encoding="utf-8"?>
<!-- Generator: Adobe Illustrator 25.0.0, SVG Export Plug-In . SVG Version: 6.00 Build 0)  -->
<svg version="1.1" id="icons" xmlns="http://www.w3.org/2000/svg" xmlns:xlink="http://www.w3.org/1999/xlink" x="0px" y="0px"
	 viewBox="0 0 32.7 32" style="enable-background:new 0 0 32.7 32;" xml:space="preserve">
<style type="text/css">
	.st0{fill-rule:evenodd;clip-rule:evenodd;fill:#FFFFFF;}
	.st1{fill:#FFFFFF;}
</style>
<path class="st0" d="M16.5,0C7.4,0,0,7.3,0,16.3C0,23.4,4.5,29.8,11.3,32c0.8,0.1,1.1-0.3,1.1-0.8s0-1.7,0-3c-4.6,1-5.5-1.9-5.5-1.9
	c-0.3-1-0.9-1.9-1.8-2.4c-1.5-1,0.1-1,0.1-1c1.1,0.1,2,0.8,2.5,1.7c0.9,1.7,3,2.3,4.7,1.4c0,0,0,0,0,0c0.1-0.8,0.4-1.6,1-2.2
	C9.8,23.2,6,21.8,6,15.5c0-1.6,0.6-3.2,1.7-4.4c-0.5-1.4-0.4-3,0.2-4.3c0,0,1.4-0.4,4.5,1.7c2.7-0.7,5.5-0.7,8.2,0
	C23.7,6.4,25,6.8,25,6.8c0.6,1.4,0.7,2.9,0.2,4.3c1.1,1.2,1.7,2.8,1.7,4.4c0,6.3-3.8,7.7-7.5,8.1c0.8,0.8,1.2,1.9,1.1,3
	c0,2.2,0,4,0,4.5c0,0.5,0.3,1,1.1,0.8c8.6-2.9,13.1-12.3,10.2-20.8C29.6,4.5,23.4,0.1,16.5,0z"/>
<path class="st1" d="M6.3,23.5c0,0.1-0.2,0.1-0.3,0c-0.1-0.1-0.2-0.2-0.1-0.2c0-0.1,0.2-0.1,0.3,0C6.3,23.4,6.3,23.5,6.3,23.5z"/>
<path class="st1" d="M6.9,24.3c-0.1,0.1-0.2,0-0.3-0.1c-0.1-0.1-0.1-0.3,0-0.3c0.1-0.1,0.3,0,0.3,0.1C7.1,24,7.1,24.2,6.9,24.3z"/>
<path class="st1" d="M7.6,25.2c-0.1,0.1-0.3,0-0.4-0.1s-0.1-0.3,0-0.4c0.1-0.1,0.3,0,0.4,0.1C7.7,24.9,7.7,25.1,7.6,25.2L7.6,25.2z"
	/>
<path class="st1" d="M8.5,26.1c-0.1,0.1-0.3,0.1-0.4-0.1C7.9,26,7.9,25.8,8,25.6c0.1-0.1,0.3-0.1,0.4,0.1S8.6,26,8.5,26.1L8.5,26.1z
	"/>
<path class="st1" d="M9.7,26.7c0,0.1-0.2,0.2-0.4,0.1C9.1,26.7,9,26.6,9,26.5c0-0.1,0.2-0.2,0.4-0.1S9.7,26.5,9.7,26.7z"/>
<path class="st1" d="M11.1,26.8c0,0.1-0.2,0.2-0.3,0.2s-0.4-0.1-0.4-0.2c0-0.1,0.2-0.2,0.3-0.2C10.9,26.5,11.1,26.6,11.1,26.8z"/>
<path class="st1" d="M12.3,26.5c0,0.1-0.1,0.3-0.3,0.3c-0.2,0-0.4,0-0.4-0.2c0-0.2,0.1-0.3,0.3-0.3C12.1,26.3,12.3,26.4,12.3,26.5z"
	/>
</svg>
