<?xml version="1.0" encoding="utf-8"?>
<!-- Generator: Adobe Illustrator 25.0.0, SVG Export Plug-In . SVG Version: 6.00 Build 0)  -->
<svg version="1.1" id="icons" xmlns="http://www.w3.org/2000/svg" xmlns:xlink="http://www.w3.org/1999/xlink" x="0px" y="0px"
	 viewBox="0 0 39.3 32" style="enable-background:new 0 0 39.3 32;" xml:space="preserve">
<style type="text/css">
	.st0{fill:#FFFFFF;}
</style>
<g id="Logo_FIXED">
	<path class="st0" d="M12.3,32c14.8,0,23-12.3,23-23c0-0.3,0-0.7,0-1c1.6-1.1,2.9-2.6,4-4.2c-1.5,0.7-3,1.1-4.6,1.3
		c1.7-1,2.9-2.6,3.5-4.5c-1.6,0.9-3.3,1.6-5.1,1.9c-3-3.3-8.1-3.5-11.4-0.5c-1.7,1.5-2.6,3.7-2.6,6c0,0.6,0.1,1.2,0.2,1.8
		C12.8,9.6,6.8,6.5,2.7,1.5c-2.1,3.7-1,8.4,2.5,10.8c-1.3,0-2.5-0.4-3.7-1v0.1c0,3.8,2.7,7.1,6.5,7.9c-0.7,0.2-1.4,0.3-2.1,0.3
		c-0.5,0-1,0-1.5-0.1C5.5,22.7,8.5,25,12,25c-2.8,2.2-6.4,3.5-10,3.5c-0.7,0-1.3,0-2-0.1C3.7,30.7,8,32,12.3,32"/>
</g>
</svg>
